<svg preserveAspectRatio="none" width="100%" height="100%" overflow="visible" style="display: block;" viewBox="0 0 33.7846 12.446" fill="none" xmlns="http://www.w3.org/2000/svg">
<path id="Arrow 1" d="M2.52807 5.34783L2.95642 6.25144V6.25144L2.52807 5.34783ZM29.5207 7.58691L28.9493 8.40759V8.40759L29.5207 7.58691ZM32.9608 10.8436C33.5044 10.7462 33.8662 10.2266 33.7688 9.68294L32.1822 0.823884C32.0849 0.280249 31.5652 -0.0815287 31.0216 0.0158314C30.478 0.113191 30.1162 0.632821 30.2136 1.17646L31.6238 9.05117L23.7491 10.4615C23.2055 10.5588 22.8437 11.0784 22.9411 11.6221C23.0384 12.1657 23.5581 12.5275 24.1017 12.4301L32.9608 10.8436ZM0.428347 6.34318L0.856693 7.24679L2.95642 6.25144L2.52807 5.34783L2.09973 4.44422L0 5.43956L0.428347 6.34318ZM29.5207 7.58691L28.9493 8.40759L32.2131 10.6799L32.7845 9.85922L33.3559 9.03854L30.0921 6.76622L29.5207 7.58691ZM2.52807 5.34783L2.95642 6.25144C11.3807 2.25804 21.2982 3.08072 28.9493 8.40759L29.5207 7.58691L30.0921 6.76622C21.8524 1.02958 11.172 0.143628 2.09973 4.44422L2.52807 5.34783Z" fill="var(--stroke-0, black)"/>
</svg>
