<svg width="301" height="265" viewBox="0 0 301 265" fill="none" xmlns="http://www.w3.org/2000/svg">
<path d="M100.092 158.188L265.576 9.94871C273.248 3.35998 284.217 3.34929 290.804 9.92412C297.392 16.499 297.403 27.4677 290.828 34.0554L135.233 199.835" fill="#E759C3"/>
<path d="M100.092 158.188L265.576 9.94871C273.248 3.35998 284.217 3.34929 290.804 9.92412C297.392 16.499 297.403 27.4677 290.828 34.0554L135.233 199.835" stroke="black" stroke-width="10" stroke-miterlimit="10" stroke-linecap="round" stroke-linejoin="round"/>
<path d="M81.6833 158.373C53.1635 157.304 30.1538 182.555 30.1816 211.073L30.1922 222.042C30.2094 239.592 20.3514 253.861 5.00048 259.361L30.2286 259.336L78.4911 259.289C107.01 259.261 131.119 236.203 131.091 207.684C129.967 180.264 109.106 159.443 81.6833 158.373Z" fill="#9E6225" fill-opacity="0.89" stroke="black" stroke-width="10" stroke-miterlimit="10" stroke-linecap="round" stroke-linejoin="round"/>
</svg>
